<svg width="92" height="24" viewBox="0 0 92 24" fill="none" xmlns="http://www.w3.org/2000/svg">
<path d="M3.31698 22.449L1.34498 20.709L11.205 7.688L13.148 9.428L3.31698 22.449ZM2.44698 23C1.53832 23 1.08398 22.5457 1.08398 21.637C1.08398 20.7283 1.53832 20.274 2.44698 20.274H12.336C13.2446 20.274 13.699 20.7283 13.699 21.637C13.699 22.5457 13.2446 23 12.336 23H2.44698ZM2.15698 9.863C1.24832 9.863 0.793982 9.40867 0.793982 8.5C0.793982 7.59133 1.24832 7.137 2.15698 7.137H12.046C12.9546 7.137 13.409 7.59133 13.409 8.5C13.409 9.40867 12.9546 9.863 12.046 9.863H2.15698ZM21.9941 23C21.5688 23 21.2111 22.8647 20.9211 22.594C20.6504 22.304 20.5151 21.9463 20.5151 21.521V8.616C20.5151 8.17133 20.6504 7.81367 20.9211 7.543C21.2111 7.27233 21.5688 7.137 21.9941 7.137C22.4388 7.137 22.7964 7.27233 23.0671 7.543C23.3378 7.81367 23.4731 8.17133 23.4731 8.616V21.521C23.4731 21.9463 23.3378 22.304 23.0671 22.594C22.7964 22.8647 22.4388 23 21.9941 23ZM21.9941 4.556C21.4721 4.556 21.0178 4.37233 20.6311 4.005C20.2638 3.61833 20.0801 3.164 20.0801 2.642C20.0801 2.12 20.2638 1.67533 20.6311 1.308C21.0178 0.921333 21.4721 0.728 21.9941 0.728C22.5161 0.728 22.9608 0.921333 23.3281 1.308C23.7148 1.67533 23.9081 2.12 23.9081 2.642C23.9081 3.164 23.7148 3.61833 23.3281 4.005C22.9608 4.37233 22.5161 4.556 21.9941 4.556ZM45.1291 23.029C44.7038 23.029 44.3461 22.8937 44.0561 22.623C43.7854 22.333 43.6501 21.9753 43.6501 21.55V14.416C43.6501 13.314 43.4471 12.415 43.0411 11.719C42.6351 11.023 42.0841 10.5107 41.3881 10.182C40.7114 9.834 39.9284 9.66 39.0391 9.66C38.2271 9.66 37.4924 9.82433 36.8351 10.153C36.1778 10.4817 35.6558 10.9263 35.2691 11.487C34.8824 12.0283 34.6891 12.6567 34.6891 13.372H32.8621C32.8621 12.154 33.1521 11.0713 33.7321 10.124C34.3314 9.15733 35.1434 8.39367 36.1681 7.833C37.1928 7.27233 38.3431 6.992 39.6191 6.992C40.9531 6.992 42.1421 7.282 43.1861 7.862C44.2494 8.42267 45.0808 9.254 45.6801 10.356C46.2988 11.458 46.6081 12.8113 46.6081 14.416V21.55C46.6081 21.9753 46.4631 22.333 46.1731 22.623C45.9024 22.8937 45.5544 23.029 45.1291 23.029ZM33.2101 23.029C32.7848 23.029 32.4271 22.8937 32.1371 22.623C31.8664 22.333 31.7311 21.9753 31.7311 21.55V8.616C31.7311 8.17133 31.8664 7.81367 32.1371 7.543C32.4271 7.27233 32.7848 7.137 33.2101 7.137C33.6548 7.137 34.0124 7.27233 34.2831 7.543C34.5538 7.81367 34.6891 8.17133 34.6891 8.616V21.55C34.6891 21.9753 34.5538 22.333 34.2831 22.623C34.0124 22.8937 33.6548 23.029 33.2101 23.029ZM61.4457 23.116C59.9377 23.116 58.5747 22.768 57.3567 22.072C56.158 21.3567 55.201 20.39 54.4857 19.172C53.7897 17.954 53.4417 16.5813 53.4417 15.054C53.4417 13.5267 53.7607 12.1637 54.3987 10.965C55.056 9.747 55.9453 8.79 57.0667 8.094C58.188 7.37867 59.4543 7.021 60.8657 7.021C62.0063 7.021 63.06 7.26267 64.0267 7.746C64.9933 8.21 65.8053 8.848 66.4627 9.66V1.83C66.4627 1.38533 66.598 1.02767 66.8687 0.756999C67.1587 0.486333 67.5163 0.350999 67.9417 0.350999C68.3863 0.350999 68.744 0.486333 69.0147 0.756999C69.2853 1.02767 69.4207 1.38533 69.4207 1.83V15.054C69.4207 16.5813 69.063 17.954 68.3477 19.172C67.6517 20.39 66.7043 21.3567 65.5057 22.072C64.307 22.768 62.9537 23.116 61.4457 23.116ZM61.4457 20.506C62.4317 20.506 63.3113 20.274 64.0847 19.81C64.858 19.3267 65.467 18.6693 65.9117 17.838C66.3563 17.0067 66.5787 16.0787 66.5787 15.054C66.5787 14.01 66.3563 13.082 65.9117 12.27C65.467 11.458 64.858 10.82 64.0847 10.356C63.3113 9.87267 62.4317 9.631 61.4457 9.631C60.479 9.631 59.5993 9.87267 58.8067 10.356C58.0333 10.82 57.4147 11.458 56.9507 12.27C56.506 13.082 56.2837 14.01 56.2837 15.054C56.2837 16.0787 56.506 17.0067 56.9507 17.838C57.4147 18.6693 58.0333 19.3267 58.8067 19.81C59.5993 20.274 60.479 20.506 61.4457 20.506ZM84.8523 23.116C83.2476 23.116 81.817 22.7777 80.5603 22.101C79.323 21.405 78.3466 20.4577 77.6313 19.259C76.9353 18.041 76.5873 16.649 76.5873 15.083C76.5873 13.4977 76.916 12.1057 77.5733 10.907C78.25 9.689 79.178 8.74167 80.3573 8.065C81.5366 7.369 82.89 7.021 84.4173 7.021C85.9253 7.021 87.2206 7.35933 88.3033 8.036C89.386 8.69333 90.2076 9.61167 90.7683 10.791C91.3483 11.951 91.6383 13.2947 91.6383 14.822C91.6383 15.1893 91.5126 15.4987 91.2613 15.75C91.01 15.982 90.691 16.098 90.3043 16.098H78.6173V13.778H90.2173L89.0283 14.59C89.009 13.6233 88.8156 12.763 88.4483 12.009C88.081 11.2357 87.559 10.6267 86.8823 10.182C86.2056 9.73733 85.384 9.515 84.4173 9.515C83.3153 9.515 82.368 9.75667 81.5753 10.24C80.802 10.7233 80.2123 11.3903 79.8063 12.241C79.4003 13.0723 79.1973 14.0197 79.1973 15.083C79.1973 16.1463 79.439 17.0937 79.9223 17.925C80.4056 18.7563 81.0726 19.4137 81.9233 19.897C82.774 20.3803 83.7503 20.622 84.8523 20.622C85.4516 20.622 86.0606 20.5157 86.6793 20.303C87.3173 20.071 87.8296 19.81 88.2163 19.52C88.5063 19.3073 88.8156 19.201 89.1443 19.201C89.4923 19.1817 89.792 19.2783 90.0433 19.491C90.372 19.781 90.546 20.1 90.5653 20.448C90.5846 20.796 90.43 21.0957 90.1013 21.347C89.444 21.869 88.6223 22.2943 87.6363 22.623C86.6696 22.9517 85.7416 23.116 84.8523 23.116Z" fill="black"/>
<path d="M3.31698 22.449L1.34498 20.709L11.205 7.688L13.148 9.428L3.31698 22.449ZM2.44698 23C1.53832 23 1.08398 22.5457 1.08398 21.637C1.08398 20.7283 1.53832 20.274 2.44698 20.274H12.336C13.2446 20.274 13.699 20.7283 13.699 21.637C13.699 22.5457 13.2446 23 12.336 23H2.44698ZM2.15698 9.863C1.24832 9.863 0.793982 9.40867 0.793982 8.5C0.793982 7.59133 1.24832 7.137 2.15698 7.137H12.046C12.9546 7.137 13.409 7.59133 13.409 8.5C13.409 9.40867 12.9546 9.863 12.046 9.863H2.15698ZM21.9941 23C21.5688 23 21.2111 22.8647 20.9211 22.594C20.6504 22.304 20.5151 21.9463 20.5151 21.521V8.616C20.5151 8.17133 20.6504 7.81367 20.9211 7.543C21.2111 7.27233 21.5688 7.137 21.9941 7.137C22.4388 7.137 22.7964 7.27233 23.0671 7.543C23.3378 7.81367 23.4731 8.17133 23.4731 8.616V21.521C23.4731 21.9463 23.3378 22.304 23.0671 22.594C22.7964 22.8647 22.4388 23 21.9941 23ZM21.9941 4.556C21.4721 4.556 21.0178 4.37233 20.6311 4.005C20.2638 3.61833 20.0801 3.164 20.0801 2.642C20.0801 2.12 20.2638 1.67533 20.6311 1.308C21.0178 0.921333 21.4721 0.728 21.9941 0.728C22.5161 0.728 22.9608 0.921333 23.3281 1.308C23.7148 1.67533 23.9081 2.12 23.9081 2.642C23.9081 3.164 23.7148 3.61833 23.3281 4.005C22.9608 4.37233 22.5161 4.556 21.9941 4.556ZM45.1291 23.029C44.7038 23.029 44.3461 22.8937 44.0561 22.623C43.7854 22.333 43.6501 21.9753 43.6501 21.55V14.416C43.6501 13.314 43.4471 12.415 43.0411 11.719C42.6351 11.023 42.0841 10.5107 41.3881 10.182C40.7114 9.834 39.9284 9.66 39.0391 9.66C38.2271 9.66 37.4924 9.82433 36.8351 10.153C36.1778 10.4817 35.6558 10.9263 35.2691 11.487C34.8824 12.0283 34.6891 12.6567 34.6891 13.372H32.8621C32.8621 12.154 33.1521 11.0713 33.7321 10.124C34.3314 9.15733 35.1434 8.39367 36.1681 7.833C37.1928 7.27233 38.3431 6.992 39.6191 6.992C40.9531 6.992 42.1421 7.282 43.1861 7.862C44.2494 8.42267 45.0808 9.254 45.6801 10.356C46.2988 11.458 46.6081 12.8113 46.6081 14.416V21.55C46.6081 21.9753 46.4631 22.333 46.1731 22.623C45.9024 22.8937 45.5544 23.029 45.1291 23.029ZM33.2101 23.029C32.7848 23.029 32.4271 22.8937 32.1371 22.623C31.8664 22.333 31.7311 21.9753 31.7311 21.55V8.616C31.7311 8.17133 31.8664 7.81367 32.1371 7.543C32.4271 7.27233 32.7848 7.137 33.2101 7.137C33.6548 7.137 34.0124 7.27233 34.2831 7.543C34.5538 7.81367 34.6891 8.17133 34.6891 8.616V21.55C34.6891 21.9753 34.5538 22.333 34.2831 22.623C34.0124 22.8937 33.6548 23.029 33.2101 23.029ZM61.4457 23.116C59.9377 23.116 58.5747 22.768 57.3567 22.072C56.158 21.3567 55.201 20.39 54.4857 19.172C53.7897 17.954 53.4417 16.5813 53.4417 15.054C53.4417 13.5267 53.7607 12.1637 54.3987 10.965C55.056 9.747 55.9453 8.79 57.0667 8.094C58.188 7.37867 59.4543 7.021 60.8657 7.021C62.0063 7.021 63.06 7.26267 64.0267 7.746C64.9933 8.21 65.8053 8.848 66.4627 9.66V1.83C66.4627 1.38533 66.598 1.02767 66.8687 0.756999C67.1587 0.486333 67.5163 0.350999 67.9417 0.350999C68.3863 0.350999 68.744 0.486333 69.0147 0.756999C69.2853 1.02767 69.4207 1.38533 69.4207 1.83V15.054C69.4207 16.5813 69.063 17.954 68.3477 19.172C67.6517 20.39 66.7043 21.3567 65.5057 22.072C64.307 22.768 62.9537 23.116 61.4457 23.116ZM61.4457 20.506C62.4317 20.506 63.3113 20.274 64.0847 19.81C64.858 19.3267 65.467 18.6693 65.9117 17.838C66.3563 17.0067 66.5787 16.0787 66.5787 15.054C66.5787 14.01 66.3563 13.082 65.9117 12.27C65.467 11.458 64.858 10.82 64.0847 10.356C63.3113 9.87267 62.4317 9.631 61.4457 9.631C60.479 9.631 59.5993 9.87267 58.8067 10.356C58.0333 10.82 57.4147 11.458 56.9507 12.27C56.506 13.082 56.2837 14.01 56.2837 15.054C56.2837 16.0787 56.506 17.0067 56.9507 17.838C57.4147 18.6693 58.0333 19.3267 58.8067 19.81C59.5993 20.274 60.479 20.506 61.4457 20.506ZM84.8523 23.116C83.2476 23.116 81.817 22.7777 80.5603 22.101C79.323 21.405 78.3466 20.4577 77.6313 19.259C76.9353 18.041 76.5873 16.649 76.5873 15.083C76.5873 13.4977 76.916 12.1057 77.5733 10.907C78.25 9.689 79.178 8.74167 80.3573 8.065C81.5366 7.369 82.89 7.021 84.4173 7.021C85.9253 7.021 87.2206 7.35933 88.3033 8.036C89.386 8.69333 90.2076 9.61167 90.7683 10.791C91.3483 11.951 91.6383 13.2947 91.6383 14.822C91.6383 15.1893 91.5126 15.4987 91.2613 15.75C91.01 15.982 90.691 16.098 90.3043 16.098H78.6173V13.778H90.2173L89.0283 14.59C89.009 13.6233 88.8156 12.763 88.4483 12.009C88.081 11.2357 87.559 10.6267 86.8823 10.182C86.2056 9.73733 85.384 9.515 84.4173 9.515C83.3153 9.515 82.368 9.75667 81.5753 10.24C80.802 10.7233 80.2123 11.3903 79.8063 12.241C79.4003 13.0723 79.1973 14.0197 79.1973 15.083C79.1973 16.1463 79.439 17.0937 79.9223 17.925C80.4056 18.7563 81.0726 19.4137 81.9233 19.897C82.774 20.3803 83.7503 20.622 84.8523 20.622C85.4516 20.622 86.0606 20.5157 86.6793 20.303C87.3173 20.071 87.8296 19.81 88.2163 19.52C88.5063 19.3073 88.8156 19.201 89.1443 19.201C89.4923 19.1817 89.792 19.2783 90.0433 19.491C90.372 19.781 90.546 20.1 90.5653 20.448C90.5846 20.796 90.43 21.0957 90.1013 21.347C89.444 21.869 88.6223 22.2943 87.6363 22.623C86.6696 22.9517 85.7416 23.116 84.8523 23.116Z" fill="url(#paint0_linear_12_4)" fill-opacity="0.2"/>
<defs>
<linearGradient id="paint0_linear_12_4" x1="46" y1="0" x2="46" y2="24.7507" gradientUnits="userSpaceOnUse">
<stop stop-color="#4295AF"/>
<stop offset="1" stop-color="#EEECDF"/>
</linearGradient>
</defs>
</svg>
